<?xml version="1.0" standalone="no"?>
<!DOCTYPE svg PUBLIC "-//W3C//DTD SVG 20010904//EN"
 "http://www.w3.org/TR/2001/REC-SVG-20010904/DTD/svg10.dtd">
<svg version="1.0" xmlns="http://www.w3.org/2000/svg"
 width="24" height="24" viewBox="0 0 512.000000 512.000000"
 preserveAspectRatio="xMidYMid meet">

<g transform="translate(0.000000,512.000000) scale(0.100000,-0.100000)"
fill="#000000" stroke="none">
<path d="M2573 4970 c-438 -55 -924 -247 -1344 -531 -351 -238 -632 -563 -824
-953 -125 -255 -208 -537 -241 -822 -20 -166 -14 -459 11 -599 85 -481 368
-977 721 -1266 18 -14 35 -35 38 -47 14 -44 238 -224 398 -320 225 -135 475
-229 623 -233 28 -1 82 -8 120 -16 104 -20 361 -28 490 -14 257 28 528 104
830 234 528 227 760 398 1040 771 360 479 563 1077 566 1661 0 180 -16 281
-73 455 -49 148 -176 404 -272 550 -105 158 -250 332 -387 465 -135 130 -224
201 -365 292 -50 32 -129 83 -175 114 -171 115 -374 199 -576 240 -122 24
-450 35 -580 19z m425 -130 c134 -15 286 -53 397 -99 106 -44 278 -142 303
-173 9 -11 35 -29 57 -40 52 -27 295 -271 367 -368 164 -223 289 -493 333
-720 58 -308 2 -781 -140 -1166 -97 -264 -289 -598 -463 -804 -190 -226 -351
-352 -632 -494 -381 -193 -692 -300 -989 -342 -147 -20 -450 -15 -556 11 -38
9 -97 16 -130 15 -88 -1 -205 32 -330 94 -363 181 -681 581 -841 1060 -68 205
-87 330 -87 586 -1 237 13 356 64 560 42 170 93 305 180 480 206 413 502 734
896 970 554 332 1097 481 1571 430z m1495 -997 c155 -222 286 -487 336 -677
12 -44 21 -84 21 -89 0 -4 -44 36 -98 91 -54 55 -108 102 -119 106 -17 5 -23
18 -28 54 -25 190 -79 378 -154 538 -22 46 -38 84 -37 84 2 0 37 -48 79 -107z
m372 -1127 c-3 -77 -10 -146 -14 -154 -6 -11 -37 14 -127 107 -65 66 -124 121
-132 121 -8 0 -12 6 -8 15 3 8 11 83 17 166 l13 152 128 -134 129 -134 -6
-139z m-210 -166 c50 -50 109 -103 132 -118 24 -15 43 -32 43 -37 0 -17 -59
-256 -76 -308 -9 -26 -20 -47 -24 -45 -5 2 -67 60 -138 130 l-130 128 28 87
c15 49 36 125 46 171 11 45 21 82 24 82 3 0 46 -41 95 -90z m8 -626 l28 -19
-29 -70 c-16 -39 -49 -110 -73 -158 l-45 -88 -79 56 c-95 68 -191 151 -199
171 -3 8 16 59 42 112 27 53 61 128 77 165 l28 68 111 -109 c61 -59 124 -117
139 -128z m-411 -278 c33 -30 98 -81 144 -114 l84 -60 -70 -104 c-38 -57 -78
-114 -89 -128 l-19 -24 -89 75 c-48 41 -114 95 -145 118 l-58 43 31 42 c17 22
56 78 87 124 30 45 57 82 59 82 3 0 32 -24 65 -54z m-192 -399 c58 -47 116
-96 129 -110 l24 -26 -31 -38 c-46 -59 -190 -193 -206 -193 -22 0 -80 63 -157
173 -38 54 -69 100 -69 103 0 3 39 48 87 99 66 70 91 91 103 85 8 -5 62 -47
120 -93z m-353 -264 c33 -49 81 -111 107 -140 l47 -52 -41 -26 c-74 -47 -166
-95 -181 -95 -16 0 -206 149 -252 197 l-28 30 88 51 c48 28 110 67 138 86 27
20 52 36 55 36 4 0 33 -39 67 -87z m-384 -235 c51 -46 112 -99 136 -119 l44
-35 -109 -48 c-60 -27 -130 -56 -156 -67 l-47 -18 -116 121 c-63 66 -113 123
-111 126 4 3 249 116 264 121 2 1 45 -36 95 -81z m-379 -220 c58 -64 103 -119
99 -121 -10 -6 -153 -46 -221 -62 l-53 -13 -48 37 c-54 40 -205 181 -199 186
1 1 44 14 93 29 50 14 113 34 140 45 28 11 57 19 66 18 9 -1 64 -55 123 -119z
m-1406 -4 c48 -3 125 -12 171 -20 46 -8 103 -14 126 -14 37 0 45 -4 52 -24 4
-14 34 -47 65 -74 l57 -50 -32 -5 c-45 -7 -139 10 -227 40 -81 27 -317 140
-327 156 -4 6 1 8 11 4 10 -4 57 -10 104 -13z m847 -45 c27 -17 85 -63 128
-103 l80 -71 -64 -6 c-35 -4 -105 -7 -156 -8 l-91 -1 -59 44 c-32 25 -85 70
-118 100 l-60 55 65 1 c36 1 88 5 115 10 90 14 109 11 160 -21z"/>
<path d="M2255 4410 c-444 -89 -931 -420 -1251 -851 -102 -137 -214 -354 -214
-415 0 -37 16 -61 46 -68 36 -9 69 15 84 61 7 21 31 74 53 118 173 349 526
688 921 887 266 134 501 181 728 146 71 -10 79 -10 98 7 28 26 27 80 -2 99
-61 39 -307 47 -463 16z"/>
<path d="M2659 3832 c-184 -75 -298 -269 -300 -511 l0 -86 -38 107 c-46 129
-76 181 -138 244 -90 89 -215 129 -316 100 -124 -36 -175 -105 -186 -251 -4
-50 -12 -98 -17 -107 -5 -9 -37 -35 -71 -57 -33 -23 -87 -70 -120 -104 -83
-89 -103 -168 -64 -252 25 -54 63 -92 114 -115 49 -22 195 -49 271 -51 48 -2
47 -2 -22 -10 -244 -28 -382 -121 -443 -296 -34 -100 -20 -196 40 -272 34 -42
108 -86 164 -96 l37 -7 0 -67 c0 -155 53 -225 190 -251 140 -27 342 83 441
238 16 25 59 122 96 216 l67 171 9 -45 c5 -25 10 -128 11 -230 1 -242 -27
-388 -105 -553 -23 -49 -26 -64 -17 -88 10 -30 38 -43 79 -37 44 6 117 181
156 376 24 118 25 483 1 587 -9 39 -14 72 -13 73 9 9 48 -87 81 -199 42 -145
51 -163 96 -206 118 -114 387 -61 463 91 21 42 25 64 25 136 0 53 5 93 13 103
6 9 43 38 82 64 156 107 202 241 131 381 -45 88 -115 131 -247 148 l-49 7 38
27 c190 138 261 392 146 520 -66 73 -116 87 -273 77 -33 -2 -34 -1 -56 63 -48
141 -78 173 -168 177 -43 2 -76 -3 -108 -15z m142 -179 c54 -167 101 -203 232
-180 78 13 120 0 144 -46 41 -80 -35 -250 -141 -312 -23 -13 -101 -45 -174
-70 -160 -55 -236 -92 -279 -137 -42 -44 -56 -81 -41 -113 22 -48 63 -49 238
0 171 46 244 58 318 51 97 -10 137 -30 162 -80 11 -23 20 -52 20 -65 0 -50
-46 -102 -158 -180 -82 -57 -96 -87 -102 -211 -3 -72 -10 -113 -19 -124 -25
-30 -92 -58 -150 -63 -81 -6 -115 17 -136 94 -41 148 -79 256 -105 297 -40 63
-71 76 -168 73 -77 -3 -80 -4 -119 -43 -49 -47 -72 -91 -152 -300 -69 -176
-106 -235 -186 -296 -65 -49 -133 -72 -197 -66 -67 7 -84 25 -80 91 7 131 -28
195 -122 222 -109 32 -153 82 -142 162 14 103 93 189 203 222 71 22 245 41
371 41 92 0 137 18 158 63 29 61 -7 126 -94 168 -41 20 -69 24 -222 31 -253
11 -318 31 -336 105 -9 36 36 97 113 151 146 104 173 145 173 268 0 80 11 109
52 135 26 16 45 19 90 16 67 -4 123 -37 167 -98 60 -83 121 -265 155 -469 22
-128 56 -157 134 -110 73 45 98 146 89 360 -10 199 16 298 101 392 38 42 120
88 159 88 18 0 25 -12 44 -67z"/>
<path d="M3764 2226 c-11 -8 -26 -34 -33 -58 -16 -55 -80 -183 -122 -245 -345
-508 -1152 -907 -1688 -834 -101 14 -127 7 -137 -35 -10 -39 10 -71 53 -84 60
-18 292 -24 396 -10 625 83 1308 528 1556 1011 27 53 57 122 67 153 17 55 17
57 -3 84 -23 31 -59 39 -89 18z"/>
</g>
</svg>
